<svg _ngcontent-ydb-c92="" width="24" height="24" viewBox="0 0 24 24" fill="none" xmlns="http://www.w3.org/2000/svg"><path _ngcontent-ydb-c92="" d="M2.00195 12.0021C2.00252 14.3834 2.85242 16.6864 4.39892 18.4972C5.94541 20.308 8.08707 21.5079 10.439 21.8811V14.8921H7.90195V12.0021H10.442V9.80208C10.3859 9.28717 10.4438 8.76623 10.6118 8.27625C10.7797 7.78627 11.0535 7.33927 11.4136 6.96701C11.7737 6.59475 12.2114 6.30635 12.6956 6.1223C13.1797 5.93825 13.6985 5.86307 14.215 5.90208C14.965 5.91408 15.715 5.98108 16.455 6.10208V8.56108H15.191C14.9761 8.53294 14.7577 8.55344 14.5519 8.62106C14.346 8.68868 14.158 8.80169 14.0017 8.95175C13.8454 9.1018 13.7249 9.28506 13.6489 9.48798C13.573 9.69089 13.5436 9.90828 13.563 10.1241V12.0021H16.334L15.891 14.8931H13.563V21.8811C15.4506 21.5828 17.2132 20.7498 18.6421 19.4809C20.071 18.2119 21.1064 16.56 21.6257 14.7209C22.145 12.8818 22.1264 10.9323 21.5721 9.10342C21.0179 7.27451 19.9512 5.64271 18.4983 4.40122C17.0455 3.15974 15.2673 2.36055 13.3743 2.09828C11.4814 1.83602 9.55287 2.12166 7.81721 2.92138C6.08154 3.72111 4.61137 5.00143 3.58076 6.61076C2.55015 8.22009 2.00226 10.091 2.00195 12.0021Z" fill="#03B2AD"></path></svg>