<svg _ngcontent-ydb-c92="" width="24" height="24" viewBox="0 0 24 24" fill="none" xmlns="http://www.w3.org/2000/svg"><path _ngcontent-ydb-c92="" d="M5.33337 8.66675L10.7767 12.477C11.2174 12.7856 11.4378 12.9399 11.6776 12.9996C11.8893 13.0524 12.1108 13.0524 12.3225 12.9996C12.5623 12.9399 12.7826 12.7856 13.2234 12.477L18.6667 8.66675M8.53337 17.3334H15.4667C16.5868 17.3334 17.1469 17.3334 17.5747 17.1154C17.951 16.9237 18.257 16.6177 18.4487 16.2414C18.6667 15.8136 18.6667 15.2535 18.6667 14.1334V9.86675C18.6667 8.74664 18.6667 8.18659 18.4487 7.75877C18.257 7.38244 17.951 7.07648 17.5747 6.88473C17.1469 6.66675 16.5868 6.66675 15.4667 6.66675H8.53337C7.41327 6.66675 6.85322 6.66675 6.42539 6.88473C6.04907 7.07648 5.74311 7.38244 5.55136 7.75877C5.33337 8.18659 5.33337 8.74664 5.33337 9.86675V14.1334C5.33337 15.2535 5.33337 15.8136 5.55136 16.2414C5.74311 16.6177 6.04907 16.9237 6.42539 17.1154C6.85322 17.3334 7.41327 17.3334 8.53337 17.3334Z" stroke="#98A2B3" stroke-width="2" stroke-linecap="round" stroke-linejoin="round"></path></svg>