<svg _ngcontent-ydb-c92="" width="24" height="24" viewBox="0 0 24 24" fill="none" xmlns="http://www.w3.org/2000/svg"><g _ngcontent-ydb-c92="" clip-path="url(#clip0_845_995)"><path _ngcontent-ydb-c92="" d="M9.58685 9.90223C10.0508 10.8686 10.6834 11.7744 11.4844 12.5755C12.2855 13.3765 13.1912 14.009 14.1577 14.473C14.2408 14.5129 14.2823 14.5329 14.3349 14.5482C14.5218 14.6027 14.7513 14.5636 14.9096 14.4502C14.9542 14.4183 14.9923 14.3802 15.0685 14.304C15.3016 14.071 15.4181 13.9544 15.5353 13.8782C15.9772 13.5909 16.5469 13.5909 16.9889 13.8782C17.106 13.9544 17.2226 14.071 17.4556 14.304L17.5856 14.4339C17.9398 14.7882 18.117 14.9654 18.2132 15.1556C18.4046 15.534 18.4046 15.9809 18.2132 16.3592C18.117 16.5495 17.9399 16.7266 17.5856 17.0809L17.4805 17.186C17.1274 17.5391 16.9508 17.7156 16.7108 17.8505C16.4445 18.0001 16.0308 18.1077 15.7253 18.1068C15.45 18.1059 15.2619 18.0525 14.8856 17.9457C12.8633 17.3718 10.9551 16.2888 9.36311 14.6968C7.77112 13.1048 6.68814 11.1966 6.11416 9.17429C6.00735 8.79799 5.95395 8.60984 5.95313 8.33455C5.95222 8.02906 6.0598 7.6154 6.20941 7.34907C6.34424 7.10904 6.52078 6.9325 6.87386 6.57942L6.97895 6.47433C7.33325 6.12004 7.5104 5.94289 7.70065 5.84666C8.07903 5.65528 8.52587 5.65528 8.90424 5.84666C9.0945 5.94289 9.27164 6.12004 9.62594 6.47433L9.75585 6.60424C9.98892 6.83732 10.1055 6.95385 10.1816 7.07104C10.469 7.51296 10.469 8.08268 10.1816 8.52461C10.1055 8.6418 9.98892 8.75833 9.75585 8.9914C9.67964 9.06761 9.64154 9.10571 9.60965 9.15026C9.4963 9.30854 9.45717 9.53805 9.51165 9.72495C9.52698 9.77754 9.54694 9.81911 9.58685 9.90223Z" stroke="#98A2B3" stroke-width="2" stroke-linecap="round" stroke-linejoin="round"></path></g><defs _ngcontent-ydb-c92=""><clipPath _ngcontent-ydb-c92="" id="clip0_845_995"><rect _ngcontent-ydb-c92="" width="16" height="16" fill="white" transform="translate(4 4)"></rect></clipPath></defs></svg>